<svg width="100" height="100" xmlns="http://www.w3.org/2000/svg">
 <g id="Layer_1">
  <title>Layer 1</title>
  <path d="m26,50.5c0,-1 0,0 0,1c0,1 0,2 0,3c0,1 0,2 0,3c0,1 0,2 0,4c0,1 0,2 0,3c0,1 0,2 0,3c0,1 0,2 0,3c0,1 0,2 0,3c0,1 0,2 0,4c0,1 1,1 2,1c1,0 2,0 3,0c2,0 3,0 4,0c2,0 3,0 4,0c1,0 1.69344,-0.4588 3,-1c0.92388,-0.38268 5.07612,0.38268 6,0c1.30656,-0.5412 2,-1 3,-1c2,0 4,0 5,0c5,0 6,0 7,0c1,0 2,0 3,0c1,0 2,0 3,0c1,0 2,0 2,-2c0,-1 0,-2 0,-3c0,-1 -0.38268,-2.07612 0,-3c0.5412,-1.30656 1,-2 1,-3c0,-1 1,-3 1,-4c0,-1 -0.22975,-2.02675 0,-3c0.51374,-2.17625 1,-3 1,-4c0,-5 0,-6 0,-7c0,-1 0.18911,-2.01804 0,-3c-1.01837,-5.288 -3,-5 -4,-5c-1,0 -2,0 -3,0c-1,0 -3,0 -7,0c-2,0 -14.29289,-0.70711 -15,0c-0.70711,0.70711 -0.95847,1.49923 -10,2c-1.99694,0.1106 -6,1 -7,1c-2,0 -5,1 -6,1c-2,0 -4,0 -5,0c-1,0 -1.69344,0.45881 -3,1c-0.92388,0.38268 -3,-1 -3,0c0,1 2,0 2,-1c0,-1 2,-2 3,-3c1,-1 2,-2 3,-3c1,-1 1.07612,-1.61732 2,-2c1.30656,-0.54119 2.23463,-1.15224 3,-3c1.62359,-3.91969 3.61732,-4.07612 4,-5c0.5412,-1.30656 1.61732,-1.07612 2,-2c0.5412,-1.30656 4.29289,-7.29289 5,-8c0.70711,-0.70711 1.45881,-0.69344 2,-2c0.38268,-0.92388 1,-1 1,-3c0,-1 1,-2 1,-3c0,-1 1.45881,-1.30656 2,0c0.38268,0.92388 1,1 2,2c1,1 0.29289,2.29289 1,3c0.70711,0.70711 2.82443,2.09789 4,4c2.62865,4.25325 6,7 7,7c1,0 1.78795,0.4826 15,6c7.88415,3.29245 11.14935,4.47427 12,5c1.90211,1.17557 3.47427,2.14935 4,3c1.17557,1.90211 3.70711,1.29289 3,2c-0.70711,0.70711 -2,0 -3,0c-1,0 -2,0 -4,0c-1,0 -2,0 -3,0c-1,0 -2,-1 -4,-1c-2,0 -3,0 -4,0c-1,0 -3,0 -4,0c-1,0 -2,0 -5,0c-2,0 -4,0 -5,0c-1,0 -2,-1 -3,-1c-1,0 -2,0 -3,0c-1,0 -2,0 -3,0c-1,0 -2,0 -2,1c0,1 1,1 1,2c0,1 0,2 0,4c0,2 0,4 0,6c0,2 0,3 0,4c0,1 0,2 0,3c0,2 0,3 0,4c0,3 -1,3 -1,5c0,2 -1,4 -1,5c0,1 0,3 0,4c0,1 -0.29289,2.70711 -1,2c-0.70711,-0.70711 0,-2 0,-3c0,-1 0,-3 0,-4c0,-2 0,-3 0,-4c0,-1 0.45881,-1.69344 1,-3c0.76537,-1.84776 0,-3 0,-4c0,-1 -0.38268,-2.07612 0,-3c0.54119,-1.30656 0.61732,-2.07612 1,-3c0.54119,-1.30656 1.58578,-0.58578 3,-2c0.70711,-0.70711 1,-1 2,-1c1,0 2,0 3,0c1,0 2,0 3,0c1,0 2.29289,0.70711 3,0c0.70711,-0.70711 1.29289,-0.29289 2,-1c0.70711,-0.70711 0,0 0,2c0,2 0,3 0,4c0,2 0,4 0,5c0,1 0,3 0,5c0,1 0,2 0,3c0,1 0,2 0,3c0,1 0,2 0,3l0,1l0,-1" id="svg_1" stroke="#000" fill="none"/>
 </g>
</svg>