<svg width="100" height="100" xmlns="http://www.w3.org/2000/svg">
 <g id="Layer_1">
  <title>Layer 1</title>
  <path d="m13,53.5c1,0 3,0 4,0c1,0 2,0 4,0c2,0 7.02583,-0.67963 9,-1c3.12144,-0.50654 4,-1 6,-1c1,0 2.01291,0.16018 3,0c3.12144,-0.50654 4,-1 5,-1c2,0 4,0 7,0c1,0 2,0 3,0c1,0 2,0 3,0c2,0 3,0 7,0c2,0 5,0 7,0c1,0 2,0 5,0c1,0 2,0 3,0c2,0 4,1 4,0c0,-1 -2,0 -3,0c-1,0 -1.29289,-0.29289 -2,-1c-1.41422,-1.41422 -3,0 -4,0c-1,0 -2.02675,0.22975 -3,0c-2.17625,-0.51374 -3.69344,-1.45881 -5,-2c-2.77164,-1.14805 -4,0 -6,0c-1,0 -2,0 -4,0c-2,0 -3.0535,-0.45951 -5,0c-2.17625,0.51374 -3,1 -4,1c-1,0 -2,0 -3,0c-1,0 -2,0 -4,0c-1,0 -2,0 -3,0c-1,0 -3,0 -4,0c-3,0 -4,0 -5,0c-1,0 -2,0 -4,0c-3,0 -5,0 -6,0c-1,0 -2,0 -2,1c0,1 0.4588,0.30656 1,-1c0.38268,-0.92388 1.09789,-2.82443 3,-4c0.85065,-0.52573 2,-1 3,-2c1,-1 0.69344,-2.45881 2,-3c1.84776,-0.76537 2.29289,-0.29289 3,-1c0.70711,-0.70711 0.29289,-1.29289 1,-2c0.70711,-0.70711 1.29289,-0.29289 2,-1c0.70711,-0.70711 0.52573,0.14935 0,1c-1.17557,1.90211 -2.29289,2.29289 -3,3c-0.70711,0.70711 -1,2 -2,3c-2,2 -3.69344,4.45881 -5,5c-1.84776,0.76537 -2,2 -3,2c-1,0 -1.29289,0.29289 -2,1c-0.70711,0.70711 -1.70711,1.29289 -1,2c0.70711,0.70711 2,0 3,0c2,0 1.69344,1.45881 3,2c0.92388,0.38268 2.09789,1.82443 4,3c0.85065,0.52573 3.4588,1.69344 4,3c0.38268,0.92388 1.4588,1.69344 2,3c0.38268,0.92388 1,2 1,3l0,1l1,0" id="svg_1" stroke="#000" fill="none"/>
 </g>
</svg>