<svg width="100" height="100" xmlns="http://www.w3.org/2000/svg">
 <g id="Layer_1">
  <title>Layer 1</title>
  <path d="m12,49.5c1,0 2,0 3,0c2,0 4,0 10,0c1,0 2,0 3,0c1,0 2,0 3,0c1,0 3,0 5,0c1,0 3,0 4,0c1,0 2,0 4,0c1,0 3,0 8,0c2,0 4,0 5,0c4,0 6,0 8,0c1,0 3,0 4,0c1,0 2,0 3,0c2,0 3,0 4,0c1,0 2,0 3,0c2,0 4,0 5,0c1,0 2,0 1,0c-1,0 -2.29289,0.70711 -3,0c-0.70711,-0.70711 -0.61732,-2.07612 -1,-3c-0.5412,-1.30656 -1.29289,-1.29289 -2,-2c-0.70711,-0.70711 -0.29289,-1.29289 -1,-2c-0.70711,-0.70711 -0.61732,-1.07612 -1,-2c-0.5412,-1.30656 -1.29289,-1.29289 -2,-2c-0.70711,-0.70711 0.18876,-0.58471 1,0c2.56538,1.84902 1,4 2,5c2,2 2.29289,3.29289 3,4c0.70711,0.70711 1.29289,0.29289 2,1c0.70711,0.70711 -0.41422,1.58578 1,3c0.70711,0.70711 2.70711,0.29289 2,1c-0.70711,0.70711 -1,1 -2,1c-1,0 -2,1 -3,1c-1,0 -2.29289,1.29289 -3,2c-0.70711,0.70711 -1,1 -1,2c0,1 -1,2 -2,2l-1,2l-1,0" id="svg_1" stroke="#000" fill="none"/>
 </g>
</svg>